<?xml version="1.0" encoding="UTF-8"?>
<svg version="1.1" xmlns="http://www.w3.org/2000/svg" width="1024" height="1024">
<path d="M0 0 C337.92 0 675.84 0 1024 0 C1024 337.92 1024 675.84 1024 1024 C686.08 1024 348.16 1024 0 1024 C0 686.08 0 348.16 0 0 Z " fill="#F9F7F6" transform="translate(0,0)"/>
<path d="M0 0 C2.93423195 1.79646854 4.47205355 2.9441071 6 6 C6.60941573 11.36285842 5.27612026 13.79984582 2 18 C-4.04164648 25.38741607 -4.04164648 25.38741607 -7.75 27.7578125 C-10.40889281 29.88803135 -10.40889281 29.88803135 -10.06640625 33.546875 C-9.90150529 34.94828105 -9.73334707 36.34930641 -9.5625 37.75 C-8.95711999 48.06359478 -13.68837862 53.56762596 -20.25927734 61.01611328 C-22.54234398 63.61810479 -24.71131642 66.30402214 -26.88427734 68.99804688 C-27.96387968 70.33572278 -29.04888235 71.66905766 -30.13916016 72.99804688 C-34.43815154 78.24140686 -38.51496433 83.6269781 -42.55297852 89.07250977 C-46.39758915 94.24097516 -50.38449149 99.2773075 -54.43212891 104.28759766 C-58.18292803 108.94355233 -61.82492121 113.67374307 -65.4375 118.4375 C-69.70978362 124.06792816 -74.07651035 129.60091648 -78.5625 135.0625 C-83.37446377 140.92220106 -87.96985295 146.90667852 -92.48071289 153.00024414 C-96.54731802 158.46530773 -100.8187097 163.73914338 -105.14453125 169 C-108.89052326 173.57744131 -112.48093622 178.24639084 -116 183 C-120.57742664 189.17933698 -125.33068421 195.18316408 -130.20605469 201.12963867 C-133.77471672 205.48329919 -137.28396562 209.87678305 -140.75 214.3125 C-141.64571531 215.45061373 -142.54154597 216.58863669 -143.4375 217.7265625 C-145.12504565 219.87284609 -146.78803127 222.03529895 -148.4375 224.2109375 C-149.5821875 225.68433594 -149.5821875 225.68433594 -150.75 227.1875 C-151.40484375 228.04730469 -152.0596875 228.90710938 -152.734375 229.79296875 C-158.81895713 235.720191 -167.5311066 236.2297338 -175.5625 237.625 C-176.76841797 237.8415625 -177.97433594 238.058125 -179.21679688 238.28125 C-182.47621696 238.86438203 -185.73684817 239.43815356 -189 240 C-189.98895264 240.18248291 -190.97790527 240.36496582 -191.99682617 240.55297852 C-213.42547536 243.74262624 -235.31927791 240.87758112 -255 232 C-256.59908203 231.29810547 -256.59908203 231.29810547 -258.23046875 230.58203125 C-271.95438808 223.94142512 -282.62257795 213.01834088 -288.07177734 198.72265625 C-296.4244089 174.22277538 -300.83633039 147.65901614 -303.859375 122.0078125 C-303.98272217 120.9780127 -304.10606934 119.94821289 -304.2331543 118.88720703 C-304.44515686 117.02868791 -304.63585385 115.16755061 -304.80004883 113.30419922 C-305.04341466 110.61060792 -305.04341466 110.61060792 -306 107 C-309.33299646 104.57408485 -312.90473377 103.15453999 -316.75390625 101.73046875 C-317.85669922 101.31603516 -318.95949219 100.90160156 -320.09570312 100.47460938 C-322.37904644 99.62687797 -324.66288885 98.78048947 -326.94726562 97.93554688 C-348.4006579 89.86409668 -348.4006579 89.86409668 -352 84 C-353.10215169 79.11379419 -352.34808345 74.96679699 -349.8125 70.6875 C-345.79659835 65.02924082 -341.85301408 62.41786498 -335 61 C-329.82993807 60.74614067 -325.5404482 61.42944883 -320.5625 62.8125 C-319.32628906 63.14894531 -318.09007812 63.48539062 -316.81640625 63.83203125 C-312.8226032 65.05429032 -308.91071643 66.53348134 -305 68 C-305 62.06 -305 56.12 -305 50 C-300.56743142 48.73355183 -296.61824271 47.66589723 -292.14306641 46.921875 C-291.02401413 46.73368698 -289.90496185 46.54549896 -288.7519989 46.35160828 C-287.54735489 46.15307755 -286.34271088 45.95454681 -285.1015625 45.75 C-283.14142902 45.42153059 -281.18129623 45.0930571 -279.22119045 44.76442242 C-277.1318965 44.41482064 -275.04229846 44.06709173 -272.9526062 43.71987915 C-265.57483091 42.49365426 -258.19959725 41.25226252 -250.82421875 40.01171875 C-250.07392206 39.88564428 -249.32362537 39.75956982 -248.55059242 39.62967491 C-233.49940059 37.09964792 -218.46660915 34.4706441 -203.4375 31.8125 C-184.81679625 28.52210487 -166.18268675 25.33227081 -147.5267334 22.24813843 C-134.28804305 20.059173 -121.06584087 17.80292739 -107.85717773 15.43969727 C-98.22461095 13.72229482 -88.58111496 12.07263355 -78.93359375 10.44140625 C-78.26664427 10.32860573 -77.59969479 10.21580521 -76.91253471 10.09958649 C-70.13252429 8.9531638 -63.352084 7.80932321 -56.57091999 6.66974354 C-53.41429301 6.13893764 -50.2579678 5.60634105 -47.1015625 5.07421875 C-45.93962875 4.8796962 -44.77769501 4.68517365 -43.58055115 4.48475647 C-42.50805618 4.303759 -41.43556122 4.12276154 -40.33056641 3.9362793 C-39.39387115 3.77894821 -38.4571759 3.62161713 -37.49209595 3.45951843 C-35.04737571 3.04007467 -35.04737571 3.04007467 -32.86727905 2.44319153 C-29.97415485 1.75651958 -27.15075129 1.9886595 -24.1875 2.0625 C-15.84960275 2.13994177 -8.36127263 -1.18840423 0 0 Z " fill="#C0090D" transform="translate(582,325)"/>
<path d="M0 0 C15.40365917 2.29905361 29.41973097 14.54362552 40.75854492 24.47827148 C44.66623175 27.89620506 48.66912453 31.12283227 52.8125 34.25 C66.31293724 44.46940586 66.31293724 44.46940586 70 50 C69.77540443 56.13378246 67.46564374 61.03803942 64.8125 66.5 C64.37397705 67.40782227 63.9354541 68.31564453 63.48364258 69.25097656 C55.17338841 86.05810315 45.12621439 101.69497351 33.37646484 116.29003906 C32.18188201 117.7740508 31.00529085 119.27251081 29.83203125 120.7734375 C15.88865366 138.54046297 0.59117874 156.18599743 -16.5703125 170.91015625 C-18.47567003 172.54900879 -20.36230894 174.20338988 -22.2421875 175.87109375 C-30.79744637 183.4268686 -39.62343701 190.5060419 -48.77001953 197.33203125 C-51.03081723 199.0230505 -53.27925822 200.72962966 -55.52734375 202.4375 C-73.02997289 215.64114054 -91.56237165 227.08919873 -110.71923828 237.72607422 C-112.67797691 238.82013311 -114.62035355 239.93665386 -116.55859375 241.06640625 C-144.47122416 256.81452164 -178.46894461 269.55792454 -210 275 C-210.66 274.67 -211.32 274.34 -212 274 C-210.16878377 271.5400662 -208.33507187 269.08205537 -206.5 266.625 C-205.9946875 265.94566406 -205.489375 265.26632812 -204.96875 264.56640625 C-201.41772056 259.81690437 -197.75125991 255.17437163 -194.03515625 250.55322266 C-190.70692189 246.37775781 -187.47838413 242.12784841 -184.25 237.875 C-183.55608154 236.96339111 -182.86216309 236.05178223 -182.1472168 235.11254883 C-178.49239912 230.30526187 -174.86197778 225.48124656 -171.26000977 220.63427734 C-166.21933696 213.85500175 -161.00727848 207.25235071 -155.64819336 200.72192383 C-151.70448428 195.90500307 -147.94238905 190.99255121 -144.23828125 185.98828125 C-141.27600908 182.03341526 -138.2175372 178.15872726 -135.15576172 174.28076172 C-132.07479343 170.37562636 -129.02503332 166.44859746 -126 162.5 C-122.53176007 157.9745629 -119.02903403 153.47818414 -115.5 149 C-110.69814004 142.90484582 -105.95425938 136.7672785 -101.23388672 130.60888672 C-98.74250175 127.36032579 -96.24436806 124.11695077 -93.74755859 120.87255859 C-91.67458301 118.17841827 -89.60313903 115.48313141 -87.53515625 112.78515625 C-82.85553046 106.68367267 -78.13805327 100.61430096 -73.38037109 94.57348633 C-68.431098 88.28603829 -63.52163045 81.96785362 -58.61328125 75.6484375 C-56.21945573 72.56668645 -53.82085247 69.48875547 -51.41796875 66.4140625 C-45.9268366 59.38272554 -40.46496086 52.33456798 -35.125 45.1875 C-23.69742129 29.89292576 -12.16064319 14.72187455 0 0 Z " fill="#C0080B" transform="translate(628,326)"/>
<path d="M0 0 C5.76112173 3.18854536 10.33163809 7.73292443 12.75 13.9375 C13.05078125 17.1796875 13.05078125 17.1796875 13.0625 20.8125 C13.07925781 22.00617188 13.09601563 23.19984375 13.11328125 24.4296875 C12.23951957 32.86665513 6.72425013 37.65472748 0.52734375 42.7734375 C-1.12927092 44.09334187 -2.79106124 45.40676745 -4.45703125 46.71484375 C-7.54258064 49.1703369 -10.55790425 51.69667677 -13.5625 54.25 C-14.38355225 54.94754395 -14.38355225 54.94754395 -15.22119141 55.65917969 C-16.33997779 56.6104909 -17.45846578 57.56215316 -18.57666016 58.51416016 C-20.75829822 60.36985755 -22.94474826 62.21982282 -25.13183594 64.0690918 C-26.21233427 64.98282039 -27.29241128 65.89704743 -28.37207031 66.81176758 C-31.08672769 69.1113909 -33.80606559 71.40501728 -36.53515625 73.6875 C-43.0198747 79.12212799 -49.33354957 84.69841796 -55.54296875 90.4453125 C-58.40545167 93.08061424 -61.31866156 95.64642226 -64.2578125 98.1953125 C-66.61020635 100.25250399 -68.93034966 102.34346915 -71.25 104.4375 C-74.18678465 107.08863994 -77.13602542 109.72040171 -80.125 112.3125 C-85.59469718 117.0846447 -90.93885724 121.99042751 -96.25 126.9375 C-97.0440625 127.67613281 -97.838125 128.41476562 -98.65625 129.17578125 C-105.54031417 135.78008347 -105.54031417 135.78008347 -108.53125 144.609375 C-108.16589684 148.93272069 -106.76467279 152.52337256 -105.25 156.5625 C-101.40632815 167.4855709 -100.6444252 177.05639008 -105.25 187.9375 C-108.80906312 195.33405636 -113.97590759 201.35231311 -119.3125 207.50390625 C-122.29862772 210.95959461 -125.131009 214.52274075 -127.9375 218.125 C-128.62912231 219.01203613 -128.62912231 219.01203613 -129.3347168 219.91699219 C-130.22912123 221.0647232 -131.12325536 222.21266491 -132.01708984 223.36083984 C-133.7429793 225.56792778 -135.49497102 227.75354337 -137.25 229.9375 C-139.87729312 233.20962572 -142.47828283 236.50055336 -145.06347656 239.8059082 C-150.19679249 246.3684896 -155.40814504 252.86151605 -160.68530273 259.30908203 C-163.53635429 262.79878625 -166.31061646 266.32052815 -169 269.9375 C-175.88413225 278.76201267 -183.38145196 284.54179408 -194.6328125 286.3125 C-203.72964233 286.81964034 -211.39539864 281.50155085 -218.625 276.5625 C-219.39247559 276.04429687 -220.15995117 275.52609375 -220.95068359 274.9921875 C-229.11472054 269.43144067 -237.05642894 263.5722545 -244.96142578 257.65136719 C-247.188034 255.98390509 -249.41954828 254.32322676 -251.65234375 252.6640625 C-254.9571682 250.20473823 -258.24828772 247.72814449 -261.52978516 245.23779297 C-263.12051577 244.03537582 -264.72192251 242.84711776 -266.32421875 241.66015625 C-271.98982727 237.35098539 -276.32292452 233.90397577 -277.6875 226.59375 C-278.21412735 219.48428083 -275.77975501 215.23131007 -271.25 209.9375 C-265.15310147 203.08128077 -258.28543766 197.43060275 -251.0390625 191.8671875 C-246.96413515 188.73673728 -242.97985323 185.49997909 -239 182.25 C-237.64074705 181.14177737 -236.28137568 180.03369997 -234.921875 178.92578125 C-234.28701172 178.40838379 -233.65214844 177.89098633 -232.99804688 177.35791016 C-229.99005899 174.91370994 -226.95723313 172.50090925 -223.92578125 170.0859375 C-221.79017517 168.37121729 -219.66409611 166.64657417 -217.54296875 164.9140625 C-210.33389833 159.02727844 -203.08604412 153.23431999 -195.6640625 147.6171875 C-193.06750402 145.6161558 -190.57057463 143.52107197 -188.0859375 141.3828125 C-180.22595424 134.64493259 -173.36525901 128.86259105 -163.25 125.9375 C-162.64309326 125.75646729 -162.03618652 125.57543457 -161.41088867 125.38891602 C-158.93803811 124.87233024 -156.78090073 124.90721658 -154.2578125 125.015625 C-153.30519531 125.04140625 -152.35257813 125.0671875 -151.37109375 125.09375 C-149.38095119 125.15602304 -147.39123616 125.23403811 -145.40234375 125.328125 C-139.19208688 125.52875129 -139.19208688 125.52875129 -133.828125 122.78515625 C-131.30292781 119.99596117 -129.05524776 117.19072745 -126.875 114.125 C-122.16312699 107.71890743 -116.74826172 102.19957264 -111.04736328 96.6706543 C-106.53191209 92.28477693 -102.32437403 87.73543627 -98.25 82.9375 C-97.79294678 82.40181396 -97.33589355 81.86612793 -96.86499023 81.31420898 C-95.59292754 79.81750801 -94.32767983 78.31502364 -93.0625 76.8125 C-79.51399533 60.77207196 -65.73303699 45.25621752 -50.77368164 30.49780273 C-45.70771695 25.48162871 -40.85160172 20.38270421 -36.25 14.9375 C-26.43335407 3.32981843 -15.98164528 -7.20131023 0 0 Z " fill="#B50609" transform="translate(798.25,375.0625)"/>
<path d="M0 0 C8.87722296 -0.09379932 17.7542684 -0.16431005 26.63188362 -0.20724869 C30.75672365 -0.22788514 34.88121815 -0.2557477 39.00585938 -0.30175781 C97.46206621 -0.93638443 97.46206621 -0.93638443 117.80859375 17.65234375 C123.86067398 24.06664324 126.2194549 31.2687157 126.4375 40 C126.10677107 49.83651848 124.00527196 57.84440032 117 65 C110.21547414 71.04885438 95.43650268 81 86 81 C87.11568359 82.08861328 87.11568359 82.08861328 88.25390625 83.19921875 C96.019187 91.11914236 101.45582191 100.31340196 106.9375 109.875 C114.51092825 123.07333347 122.45211103 134.95643956 133 146 C133.58265625 146.64582031 134.1653125 147.29164063 134.765625 147.95703125 C145.57547466 159.54983731 158.69359893 162.29429947 174 163 C171.60451311 167.6838274 171.60451311 167.6838274 168.87890625 169.109375 C168.11449219 169.32078125 167.35007812 169.5321875 166.5625 169.75 C165.80066406 169.97171875 165.03882813 170.1934375 164.25390625 170.421875 C163.51011719 170.61265625 162.76632812 170.8034375 162 171 C161.09278198 171.25910156 161.09278198 171.25910156 160.16723633 171.5234375 C142.3698136 175.4369859 122.27114103 171.42300899 107 162 C93.08744111 151.65826618 84.81593983 137.19563135 76.53320312 122.37548828 C67.28921791 103.59116321 67.28921791 103.59116321 53 89 C51.00613475 88.63174403 49.00603825 88.29482476 47 88 C47.06927272 93.53224981 47.15742825 99.06377214 47.26245117 104.59545898 C47.29553184 106.47395704 47.32361527 108.35255046 47.34643555 110.23120117 C47.38029386 112.94490889 47.43262215 115.65775576 47.48828125 118.37109375 C47.49467117 119.19959335 47.5010611 120.02809296 47.50764465 120.88169861 C47.67341572 127.58275485 48.47525008 134.47525008 53.375 139.375 C54.24125 139.91125 55.1075 140.4475 56 141 C56.928125 141.5775 57.85625 142.155 58.8125 142.75 C59.8953125 143.36875 59.8953125 143.36875 61 144 C60.125 149.875 60.125 149.875 59 151 C57.2618027 151.10933299 55.51917862 151.14907948 53.77758789 151.16113281 C52.6629567 151.17074036 51.5483255 151.1803479 50.3999176 151.19024658 C48.57967323 151.1966214 48.57967323 151.1966214 46.72265625 151.203125 C45.48583603 151.20882507 44.24901581 151.21452515 42.97471619 151.22039795 C40.3527004 151.22986479 37.73067263 151.23638858 35.10864258 151.24023438 C32.41286782 151.24463245 29.71741073 151.25857047 27.02172852 151.28125 C23.15110455 151.31157625 19.28088548 151.3222673 15.41015625 151.328125 C14.19868423 151.3404718 12.98721222 151.3528186 11.73902893 151.36553955 C10.62124557 151.36253845 9.50346222 151.35953735 8.35180664 151.35644531 C6.87074181 151.36191376 6.87074181 151.36191376 5.35975647 151.36749268 C4.58103683 151.24622009 3.8023172 151.12494751 3 151 C1 148 1 148 0.4375 145.625 C1 143 1 143 2.4609375 141.84765625 C3.07195312 141.46480469 3.68296875 141.08195313 4.3125 140.6875 C8.60781521 137.92808538 9.85618031 134.86563299 11 130 C12.12040504 124.61248134 12.16130754 119.3757457 12.17700195 113.89892578 C12.18685875 112.39533005 12.18685875 112.39533005 12.19691467 110.86135864 C12.21656831 107.55600908 12.22829052 104.25070471 12.23828125 100.9453125 C12.24235678 99.81341366 12.2464323 98.68151482 12.25063133 97.51531601 C12.27145488 91.52795344 12.28577454 85.54061356 12.29516602 79.55322266 C12.30624273 73.37729526 12.34066822 67.20172691 12.38033772 61.02592659 C12.4064986 56.26804949 12.41485724 51.51025822 12.41844749 46.75231552 C12.42331213 44.47579387 12.43492255 42.19927602 12.45348549 39.92282486 C12.47787246 36.73488151 12.47691274 33.54787165 12.4699707 30.35986328 C12.48278076 29.42557495 12.49559082 28.49128662 12.50878906 27.52868652 C12.4611908 21.51432307 11.36214835 17.04455701 8 12 C5.12058373 9.21656427 1.59962866 7.71800459 -2 6 C-1.34 4.02 -0.68 2.04 0 0 Z " fill="#C60B0F" transform="translate(107,682)"/>
<path d="M0 0 C3.83871711 3.81999166 5.78548502 6.52884266 6.3125 12.0625 C6.00589205 18.37154828 3.31479294 21.8587462 -1.1875 26.0625 C-1.89132812 26.66964844 -2.59515625 27.27679688 -3.3203125 27.90234375 C-5.64655844 30.87013286 -5.76868766 33.42563555 -6.0625 37.125 C-5.52923096 37.03412109 -4.99596191 36.94324219 -4.4465332 36.84960938 C20.68081023 32.74804447 49.00426731 31.04010393 73.9375 37.125 C74.67871094 37.29660645 75.41992188 37.46821289 76.18359375 37.64501953 C91.37028181 41.22720839 116.98123363 48.24477436 126.9375 61.125 C126.9375 61.785 126.9375 62.445 126.9375 63.125 C118.47950082 64.56446829 110.02109627 66.00154469 101.5625 67.4375 C100.9132317 67.54774002 100.26396339 67.65798004 99.59502029 67.77156067 C83.24060831 70.54812437 66.88358241 73.3081154 50.51953125 76.02734375 C49.80629889 76.14587204 49.09306652 76.26440033 48.35822105 76.38652039 C42.64964793 77.33507134 36.94096397 78.28295494 31.23226547 79.23075104 C14.17583011 82.0629797 -2.87156344 84.92951199 -19.88891602 87.98925781 C-33.15409948 90.35697595 -46.45692501 92.48921312 -59.75830078 94.64230347 C-73.06376127 96.79752687 -86.35569526 99.00690857 -99.625 101.375 C-100.30613861 101.49643372 -100.98727722 101.61786743 -101.6890564 101.74298096 C-104.92621791 102.32023515 -108.16329653 102.89795382 -111.40039062 103.47558594 C-117.22122805 104.50781444 -123.04630812 105.51315986 -128.875 106.5 C-129.84832275 106.66790039 -130.82164551 106.83580078 -131.82446289 107.00878906 C-132.71383545 107.15799805 -133.60320801 107.30720703 -134.51953125 107.4609375 C-135.28241455 107.59032715 -136.04529785 107.7197168 -136.83129883 107.85302734 C-139.2609286 108.14918749 -141.61725747 108.1707961 -144.0625 108.125 C-144.62508161 101.09272993 -142.39909595 97.8688925 -137.93359375 92.625 C-125.26174796 79.60737351 -110.1924309 69.37140866 -94.0625 61.125 C-92.9477832 60.538396 -92.9477832 60.538396 -91.81054688 59.93994141 C-80.53315505 54.04196826 -68.99410963 49.49888177 -56.9375 45.5 C-56.26853699 45.27772736 -55.59957397 45.05545471 -54.91033936 44.82644653 C-43.69223392 41.125 -43.69223392 41.125 -40.0625 41.125 C-40.5575 37.165 -40.5575 37.165 -41.0625 33.125 C-41.63097656 33.17140625 -42.19945312 33.2178125 -42.78515625 33.265625 C-48.82764752 33.54807868 -52.11447714 32.62984953 -57.0625 29.125 C-58.82334994 25.60330013 -58.59538765 21.96897609 -58.0625 18.125 C-53.9847794 7.80379848 -47.47766653 2.17731828 -37.63671875 -2.39453125 C-26.09087061 -7.17690988 -10.26984524 -8.44216092 0 0 Z " fill="#C10A0D" transform="translate(423.0625,248.875)"/>
<path d="M0 0 C8.60095768 5.08043258 14.19682326 11.93421979 17.34765625 21.38671875 C18.64437518 31.97304709 13.54650012 39.65963622 7.41015625 47.82421875 C6.24456958 49.40608638 5.07921141 50.9881224 3.9140625 52.5703125 C3.02485107 53.76889893 3.02485107 53.76889893 2.11767578 54.99169922 C-0.67193094 58.7663257 -3.41050481 62.57733491 -6.15234375 66.38671875 C-7.23540935 67.88691207 -8.31874331 69.38691169 -9.40234375 70.88671875 C-9.93859375 71.62921875 -10.47484375 72.37171875 -11.02734375 73.13671875 C-12.65234375 75.38671875 -14.27734375 77.63671875 -15.90234375 79.88671875 C-16.43851318 80.62913818 -16.97468262 81.37155762 -17.52709961 82.13647461 C-18.61112791 83.63737425 -19.69527517 85.13818797 -20.77954102 86.63891602 C-23.4782203 90.37445842 -26.17485687 94.11144129 -28.8671875 97.8515625 C-36.12970575 107.93490411 -43.47004192 117.95805023 -50.85546875 127.95166016 C-52.70820112 130.4624146 -54.55590685 132.9768003 -56.40234375 135.4921875 C-57.01988525 136.33273682 -57.63742676 137.17328613 -58.27368164 138.03930664 C-59.44044557 139.62766775 -60.60637029 141.21664585 -61.77124023 142.80639648 C-62.84422911 144.26575795 -63.92409588 145.7200908 -65.01123047 147.16894531 C-66.17241049 148.73814486 -67.30136119 150.3314338 -68.40673828 151.94042969 C-72.83718798 158.16273936 -72.83718798 158.16273936 -76.609375 159.19921875 C-80.58532515 158.13760433 -83.81490559 156.48251331 -87.33984375 154.38671875 C-88.04173828 153.97953613 -88.74363281 153.57235352 -89.46679688 153.15283203 C-98.58520414 147.77814412 -106.85389261 141.53716106 -114.65234375 134.38671875 C-114.08326628 130.4005131 -112.88714963 127.80306336 -110.66015625 124.46484375 C-109.73456909 123.06347168 -109.73456909 123.06347168 -108.7902832 121.63378906 C-108.12601318 120.64475586 -107.46174316 119.65572266 -106.77734375 118.63671875 C-105.39819648 116.55354496 -104.01929182 114.47021053 -102.640625 112.38671875 C-101.9595166 111.36320312 -101.2784082 110.3396875 -100.57666016 109.28515625 C-98.01090768 105.42057704 -95.48161804 101.53331174 -92.96484375 97.63671875 C-92.31032227 96.62557007 -92.31032227 96.62557007 -91.64257812 95.59399414 C-88.31637275 90.44439443 -85.04272622 85.26253689 -81.77734375 80.07421875 C-76.01215144 70.91398956 -70.12079519 61.83902954 -64.20751953 52.77392578 C-61.80601555 49.08759832 -59.41631249 45.39367705 -57.02734375 41.69921875 C-56.58342285 41.01375977 -56.13950195 40.32830078 -55.68212891 39.62207031 C-53.38030211 36.06645752 -51.08685447 32.50576719 -48.8046875 28.9375 C-23.33978296 -10.81599698 -23.33978296 -10.81599698 0 0 Z " fill="#C0080C" transform="translate(756.65234375,176.61328125)"/>
<path d="M0 0 C10.57816209 8.882854 19.91406575 20.78022322 21.17578125 34.97802734 C22.27459589 52.5786832 17.63297006 67.14730241 6.1875 80.8125 C-2.90837212 90.48672237 -14.6496976 96.91538862 -28.0402832 97.34399414 C-43.31461301 97.54684261 -55.23718738 92.96592597 -67 83 C-78.15554336 71.82902712 -85.05055022 59.10010917 -85.375 43.25 C-85.34457037 26.8065887 -77.21337413 14.42531075 -66 3 C-65.37351562 2.34902344 -64.74703125 1.69804688 -64.1015625 1.02734375 C-45.98039173 -16.36745097 -19.28504541 -13.88936336 0 0 Z " fill="#BE070A" transform="translate(911,737)"/>
<path d="M0 0 C7.52711502 5.42715902 11.68535659 12.65976797 13.64355469 21.6237793 C14.33801098 26.85438746 14.32191796 32.05287289 14.37109375 37.32421875 C14.40400644 39.70638424 14.43721848 42.08854561 14.47070312 44.47070312 C14.51826623 48.21685184 14.56276555 51.96298086 14.60180664 55.70922852 C14.64139338 59.3310592 14.69293952 62.9525654 14.74609375 66.57421875 C14.7545079 67.69922287 14.76292206 68.82422699 14.77159119 69.98332214 C14.78823318 71.02482925 14.80487518 72.06633636 14.82202148 73.1394043 C14.83748268 74.51457466 14.83748268 74.51457466 14.85325623 75.91752625 C14.97744436 78.5212443 14.97744436 78.5212443 17.125 81.25 C20.25057959 81.61530232 20.25057959 81.61530232 23.75 81.4375 C24.93851563 81.41042969 26.12703125 81.38335938 27.3515625 81.35546875 C28.72441406 81.30326172 28.72441406 81.30326172 30.125 81.25 C29.26189057 88.22432105 26.40064185 92.02869344 21.4765625 96.87109375 C15.21208949 101.69938845 7.65823019 101.1246138 0.125 100.25 C-6.28905349 98.56989354 -10.01773321 94.45146582 -13.875 89.25 C-17.12062998 90.74224367 -19.82465734 92.62202876 -22.6875 94.75 C-30.76966637 100.40046806 -38.18250372 100.99823309 -47.875 100.25 C-56.44782892 98.64112663 -63.02648922 95.04130595 -68.55078125 88.2265625 C-72.70888057 82.02007798 -74.04720052 74.58752442 -72.875 67.25 C-69.54708514 57.09677828 -62.79842151 50.55721746 -53.5625 45.5625 C-41.93380924 39.86348048 -28.60773488 37.16706345 -15.875 35.25 C-15.49580389 27.86269797 -15.70585311 21.05732753 -18.875 14.25 C-22.75770621 10.05247978 -26.96798356 8.52409012 -32.609375 7.9921875 C-43.42852983 7.58029074 -49.84015072 10.89680892 -57.83203125 17.95703125 C-59.875 19.25 -59.875 19.25 -62.13671875 18.94921875 C-62.71035156 18.71847656 -63.28398438 18.48773437 -63.875 18.25 C-64.45524609 14.27116965 -64.6407482 10.78149641 -62.80859375 7.1171875 C-48.55785115 -11.0980474 -18.29994298 -11.0342325 0 0 Z " fill="#C0080B" transform="translate(658.875,732.75)"/>
<path d="M0 0 C10.44027678 7.95887297 14.22984548 19.0706371 16.21875 31.69140625 C16.47239532 35.70896693 16.57853964 39.67836799 16.21875 43.69140625 C14.42722624 45.48293001 11.74348568 44.86303021 9.32202148 44.89672852 C7.43017372 44.92664635 7.43017372 44.92664635 5.50010681 44.95716858 C4.11335373 44.9741542 2.72659934 44.99103296 1.33984375 45.0078125 C-0.0712089 45.02837551 -1.48225529 45.0493718 -2.89329529 45.07078552 C-6.6135859 45.1260738 -10.33393273 45.17545311 -14.05432129 45.22363281 C-17.84811425 45.27379867 -21.64182523 45.32951033 -25.43554688 45.38476562 C-32.88404523 45.49242976 -40.33261159 45.59385622 -47.78125 45.69140625 C-47.64290367 47.12400696 -47.49859672 48.55603281 -47.35180664 49.98779297 C-47.23223351 51.18406815 -47.23223351 51.18406815 -47.11024475 52.4045105 C-45.98701964 60.21223003 -41.12368202 67.57004073 -34.97265625 72.35546875 C-27.14489316 77.12747406 -18.25828951 77.75526781 -9.35546875 76.29296875 C-3.14750039 74.72827623 2.13529801 71.66614713 7.57348633 68.38476562 C12.03922162 65.69140625 12.03922162 65.69140625 14.21875 65.69140625 C13.73953309 75.59522231 10.12722101 83.55527722 3.37890625 90.8671875 C-8.26203092 100.69778001 -22.35671288 100.69979998 -36.78125 99.69140625 C-48.61120097 97.5955985 -60.50582479 90.28453021 -67.78125 80.69140625 C-77.18904251 64.46017531 -80.6834655 47.18826002 -76.15625 28.81640625 C-71.73285042 14.23156079 -64.37004765 4.57596343 -50.98046875 -2.765625 C-33.8606404 -11.02244087 -16.10333949 -10.43057217 0 0 Z " fill="#C1090C" transform="translate(501.78125,734.30859375)"/>
<path d="M0 0 C0.9075 0.5775 1.815 1.155 2.75 1.75 C13.20189437 12.20189437 15.09782783 26.42461433 15.1328125 40.5234375 C15 43 15 43 14 44 C12.06776005 44.12357078 10.13106201 44.17794458 8.19506836 44.20532227 C6.95385727 44.22526749 5.71264618 44.24521271 4.43382263 44.26576233 C3.0691643 44.28274793 1.70450463 44.29962669 0.33984375 44.31640625 C-1.04878875 44.33696936 -2.4374149 44.35796566 -3.82603455 44.37937927 C-7.48714059 44.43466647 -11.14830373 44.48404626 -14.80950928 44.53222656 C-18.54297997 44.58239321 -22.27636738 44.63810446 -26.00976562 44.69335938 C-33.3397733 44.80102218 -40.66985005 44.90244894 -48 45 C-47.8588301 46.44094265 -47.71228553 47.88135941 -47.56347656 49.3215332 C-47.4824469 50.1237178 -47.40141724 50.9259024 -47.31793213 51.75239563 C-46.3604902 58.52098072 -41.83872026 65.37633398 -37 70 C-27.61811324 75.62302008 -18.81260849 77.652093 -7.93359375 75.3515625 C-1.3012066 73.32812235 4.19910159 70.28501809 9.91796875 66.390625 C12 65 12 65 13 65 C12.84100303 74.221824 9.12212105 82.94189274 3.296875 90.08984375 C-6.74622294 99.31166031 -19.87534641 99.70898565 -32.76708984 99.17480469 C-44.67429264 98.2426423 -57.4187644 91.8031625 -65.48046875 82.99609375 C-68.56788606 78.94038618 -70.85262728 74.61035353 -73 70 C-73.41636719 69.15308594 -73.83273438 68.30617188 -74.26171875 67.43359375 C-80.21157653 53.09130499 -78.59680059 33.35128308 -72.8515625 19.1640625 C-66.02192514 5.07053339 -54.85810014 -2.34894305 -40.7890625 -7.8671875 C-26.6759116 -12.21427617 -11.73230173 -8.08899916 0 0 Z " fill="#C40A0D" transform="translate(314,735)"/>
<path d="M0 0 C0.38813666 9.1643377 -0.0829992 19.2489976 -3 28 C-5.52475462 29.26237731 -7.31200466 29.09856404 -10.125 29.0625 C-11.03507812 29.05347656 -11.94515625 29.04445313 -12.8828125 29.03515625 C-13.58148438 29.02355469 -14.28015625 29.01195312 -15 29 C-15.29132813 27.92621094 -15.58265625 26.85242188 -15.8828125 25.74609375 C-19.08341038 13.47627173 -19.08341038 13.47627173 -27.87890625 4.9296875 C-32.39434674 2.96798928 -37.1334471 1.99085047 -42 3 C-49.02890843 6.11683348 -53.17658393 10.69761275 -56.25 17.6875 C-61.23483759 32.32676613 -58.18229107 51.09803942 -52.0859375 64.91796875 C-48.85806523 71.10665911 -44.52217902 74.5912407 -38 77 C-28.09191058 79.48113019 -18.56393797 78.78027841 -9.76171875 73.7109375 C-5.0358799 70.74041023 -1.12145961 67.39378319 2.6875 63.3203125 C3.120625 62.88460937 3.55375 62.44890625 4 62 C4.33 62 4.66 62 5 62 C4.75806608 72.33717648 1.20387901 80.48081554 -5.859375 88.05078125 C-17.96512426 99.07408213 -29.32910017 101.81565949 -45.2109375 101.33984375 C-57.18184872 100.68667364 -67.05374405 94.46258912 -75.25 85.875 C-86.29833288 71.84842086 -89.35034652 55.38973035 -88 38 C-87.44442972 34.37490394 -86.51708564 31.33061329 -85 28 C-84.63261719 27.14792969 -84.26523437 26.29585937 -83.88671875 25.41796875 C-76.63638438 10.46816426 -64.36913243 0.20026462 -48.875 -5.4375 C-32.63428387 -9.94989059 -15.10564409 -6.85670942 0 0 Z " fill="#C30A0D" transform="translate(420,733)"/>
<path d="M0 0 C0.33 9.9 0.66 19.8 1 30 C8.47892395 30.24951615 8.47892395 30.24951615 15.95849609 30.47802734 C17.35189209 30.53144287 17.35189209 30.53144287 18.7734375 30.5859375 C20.20308838 30.63306885 20.20308838 30.63306885 21.66162109 30.68115234 C24 31 24 31 26 33 C26 36.3 26 39.6 26 43 C13.625 43.495 13.625 43.495 1 44 C0.90938271 52.33679047 0.83610297 60.67319362 0.79275131 69.01034546 C0.77193744 72.8822469 0.7437349 76.75379192 0.69824219 80.62548828 C0.65456071 84.36674468 0.63081633 88.10765974 0.62049103 91.84915161 C0.61313936 93.27163053 0.59878362 94.69409223 0.57707977 96.11642456 C0.40452472 107.20486482 0.40452472 107.20486482 5 117 C8.78049619 119.29438975 11.57983573 119.35646486 16 119 C19.38489387 118.14512899 22.69336598 117.11773544 26 116 C26.57092452 120.68158103 25.66126706 123.51344777 22.765625 127.2578125 C15.28689015 134.63727211 7.08435897 136.350676 -3.01855469 136.3828125 C-10.69116002 136.23532149 -16.11370891 134.60334913 -21.82421875 129.30859375 C-29.88600218 119.95848658 -29.461104 106.8389011 -29.51171875 95.171875 C-29.52860746 93.68685464 -29.54676316 92.2018482 -29.56611633 90.71685791 C-29.61316847 86.85040647 -29.64326495 82.98401149 -29.66955566 79.11737061 C-29.6995902 75.15495655 -29.7460404 71.1927364 -29.79101562 67.23046875 C-29.87653754 59.48707636 -29.94410687 51.74366905 -30 44 C-31.03060547 43.96132813 -31.03060547 43.96132813 -32.08203125 43.921875 C-33.43361328 43.83679688 -33.43361328 43.83679688 -34.8125 43.75 C-35.70582031 43.70359375 -36.59914063 43.6571875 -37.51953125 43.609375 C-40 43 -40 43 -41.82421875 40.953125 C-42.21222656 40.30859375 -42.60023438 39.6640625 -43 39 C-41.46052732 34.94139022 -38.59802365 32.8155416 -35.3125 30.1875 C-30.30899974 26.07850305 -25.63797935 21.71183931 -21.09765625 17.09765625 C-20.58594376 16.57838058 -20.07423126 16.05910492 -19.54701233 15.52409363 C-16.95621694 12.88777758 -14.38181046 10.23699114 -11.8215332 7.57104492 C-10.85783287 6.5835793 -9.8938946 5.59634581 -8.9296875 4.609375 C-8.07616699 3.72217773 -7.22264648 2.83498047 -6.34326172 1.92089844 C-4 0 -4 0 0 0 Z " fill="#C1080C" transform="translate(557,696)"/>
<path d="M0 0 C3.06381504 2.68083816 4.70917463 4.87752388 6 8.75 C6.1484944 11.36864161 6.2310027 13.9432477 6.25 16.5625 C6.270625 17.26181641 6.29125 17.96113281 6.3125 18.68164062 C6.3482912 23.46424039 5.65160563 26.7546753 3 30.75 C-1.16647526 33.74087229 -6.09562326 33.32063503 -11 32.75 C-14.625 31.5 -14.625 31.5 -17 28.75 C-17.49515692 24.70263038 -17.344346 20.80563065 -17 16.75 C-23.71961172 17.58254466 -23.71961172 17.58254466 -28.9375 21.5625 C-31.99792054 26.29224084 -33.24969124 29.83074545 -33.25878906 35.47070312 C-33.26509338 36.59536987 -33.27139771 37.72003662 -33.27789307 38.87878418 C-33.2738446 40.0840979 -33.26979614 41.28941162 -33.265625 42.53125 C-33.26753845 43.77749146 -33.2694519 45.02373291 -33.27142334 46.30773926 C-33.27313093 49.61353564 -33.26509701 52.91914323 -33.25390625 56.22491455 C-33.25000357 58.24814858 -33.25389313 60.2712091 -33.26074219 62.29443359 C-33.27309773 66.1859542 -33.27159997 70.07721869 -33.265625 73.96875 C-33.26967346 75.17406372 -33.27372192 76.37937744 -33.27789307 77.62121582 C-33.27158875 78.74588257 -33.26528442 79.87054932 -33.25878906 81.02929688 C-33.25719788 82.01571167 -33.25560669 83.00212646 -33.25396729 84.01843262 C-32.88437324 87.99363376 -32.00813324 90.81676823 -29.0546875 93.55078125 C-27.97574219 94.29908203 -27.97574219 94.29908203 -26.875 95.0625 C-26.15054688 95.57425781 -25.42609375 96.08601562 -24.6796875 96.61328125 C-24.12539063 96.98839844 -23.57109375 97.36351562 -23 97.75 C-23.875 103.625 -23.875 103.625 -25 104.75 C-26.47354348 104.84304018 -27.95150591 104.86746265 -29.42797852 104.86352539 C-30.36887833 104.86344986 -31.30977814 104.86337433 -32.27919006 104.86329651 C-33.30209641 104.85813522 -34.32500275 104.85297394 -35.37890625 104.84765625 C-36.42070541 104.8462413 -37.46250458 104.84482635 -38.53587341 104.84336853 C-41.87811094 104.8377508 -45.22028257 104.8251953 -48.5625 104.8125 C-50.82226466 104.80748728 -53.08203037 104.80292398 -55.34179688 104.79882812 C-60.89455391 104.78777561 -66.44727225 104.77102024 -72 104.75 C-73.94158017 101.23375245 -74.18311068 98.7784349 -74 94.75 C-72.27473958 94.09895833 -70.54947917 93.44791667 -68.82421875 92.796875 C-66.42686784 91.42109332 -65.44004045 90.11844289 -64 87.75 C-63.54652755 84.84009429 -63.54652755 84.84009429 -63.61181641 81.59204102 C-63.60235992 80.34717422 -63.59290344 79.10230743 -63.5831604 77.81971741 C-63.58853087 76.46444378 -63.59468401 75.10917306 -63.6015625 73.75390625 C-63.59954052 72.35912423 -63.59662805 70.96434323 -63.59286499 69.56956482 C-63.58844595 66.64840617 -63.59485783 63.72752306 -63.60888672 60.80639648 C-63.62596289 57.06935673 -63.61614535 53.33296414 -63.59816933 49.59594822 C-63.58730632 46.71594913 -63.59078955 43.83610234 -63.5985527 40.95609856 C-63.6005486 39.57864238 -63.59811692 38.2011722 -63.59111404 36.82373238 C-63.58346082 34.89494226 -63.59720189 32.96610345 -63.61181641 31.03735352 C-63.61420319 29.94133316 -63.61658997 28.84531281 -63.61904907 27.71607971 C-64.05085943 24.35400907 -64.98469362 22.45383072 -67 19.75 C-69.02126924 18.94363191 -69.02126924 18.94363191 -71.1875 18.9375 C-73.0746875 18.8446875 -73.0746875 18.8446875 -75 18.75 C-75.33 17.1 -75.66 15.45 -76 13.75 C-71.28846804 9.94797699 -65.9177941 7.95069474 -60.375 5.625 C-59.33214844 5.16996094 -58.28929687 4.71492187 -57.21484375 4.24609375 C-50.89969484 1.58915844 -44.93389479 -0.43849067 -38 -0.25 C-37 0.75 -37 0.75 -36.90234375 4.12890625 C-36.90901631 5.52347077 -36.92097468 6.91801743 -36.9375 8.3125 C-36.94201172 9.02341797 -36.94652344 9.73433594 -36.95117188 10.46679688 C-36.96299136 12.22790013 -36.98092737 13.98896036 -37 15.75 C-35.89398437 14.63818359 -35.89398437 14.63818359 -34.765625 13.50390625 C-25.22889147 4.00758261 -14.39176693 -5.99656955 0 0 Z " fill="#C0080B" transform="translate(765,728.25)"/>
<path d="M0 0 C9.20751424 4.69771135 14.15458184 14.34069437 17.53515625 23.62890625 C22.74540192 40.51237992 23.27305847 61.4097231 17.91015625 78.37890625 C14.83049826 83.58161505 11.77391533 87.42431989 5.91015625 89.37890625 C-1.0298718 89.91275456 -6.08381438 88.10779901 -11.58984375 83.94140625 C-21.75358002 74.64558454 -26.57021976 59.24414195 -27.21435547 45.77539062 C-28.09967836 12.05613602 -28.09967836 12.05613602 -19.08984375 2.37890625 C-13.44689934 -1.75733361 -6.64673555 -1.97538496 0 0 Z " fill="#F9F7F5" transform="translate(882.08984375,735.62109375)"/>
<path d="M0 0 C1.59341703 3.18683406 1.13517952 6.63445964 1.12597656 10.1340332 C1.1278447 10.97485443 1.12971283 11.81567566 1.13163757 12.68197632 C1.13564669 14.51154079 1.13771688 16.34111027 1.13809967 18.17067909 C1.14150856 22.05846557 1.16286285 25.94608381 1.18333054 29.83381176 C1.22138959 37.07664864 1.25261439 44.31930765 1.25048828 51.56225586 C1.2497017 56.59631363 1.27304346 61.62975846 1.3123703 66.66365623 C1.3228415 68.58255445 1.32434611 70.50152332 1.31671906 72.42043495 C1.30710738 75.10689311 1.32825962 77.79149289 1.35644531 80.4777832 C1.34624863 81.27017899 1.33605194 82.06257477 1.32554626 82.87898254 C1.40078285 86.87941224 1.8051697 88.75622258 4.33319092 91.9193573 C7.0959393 94.07485178 9.79968062 95.58590539 13 97 C12.125 103.875 12.125 103.875 11 105 C9.49581261 105.09311889 7.98728644 105.11746028 6.48022461 105.11352539 C5.03884377 105.11341209 5.03884377 105.11341209 3.56834412 105.11329651 C2.523564 105.10813522 1.47878387 105.10297394 0.40234375 105.09765625 C-0.66165146 105.0962413 -1.72564667 105.09482635 -2.82188416 105.09336853 C-6.23545083 105.08775064 -9.648953 105.07519511 -13.0625 105.0625 C-15.37044176 105.05748731 -17.67838455 105.052924 -19.98632812 105.04882812 C-25.65757426 105.0377754 -31.32878253 105.02101987 -37 105 C-40 98.375 -40 98.375 -40 95 C-39.45730469 94.78085937 -38.91460938 94.56171875 -38.35546875 94.3359375 C-37.64003906 94.01882813 -36.92460938 93.70171875 -36.1875 93.375 C-35.47980469 93.07335937 -34.77210938 92.77171875 -34.04296875 92.4609375 C-30.99019034 90.2778799 -30.33171419 88.56910591 -29 85 C-28.56370398 80.57238899 -28.60371868 76.16461227 -28.63671875 71.71875 C-28.63622025 70.43190308 -28.63572174 69.14505615 -28.63520813 67.81921387 C-28.63529755 65.10250025 -28.64566526 62.38608521 -28.66381836 59.66943359 C-28.68650467 56.19944497 -28.68704645 52.72989194 -28.68030071 49.25984955 C-28.67614239 45.93360068 -28.68814258 42.60748393 -28.69921875 39.28125 C-28.69830734 38.04048706 -28.69739594 36.79972412 -28.69645691 35.5213623 C-28.70598892 34.35995728 -28.71552094 33.19855225 -28.7253418 32.00195312 C-28.72994919 30.98524536 -28.73455658 29.9685376 -28.73930359 28.92102051 C-29.0265455 25.70256615 -29.87015281 23.01750993 -31 20 C-33.64 19.67 -36.28 19.34 -39 19 C-39.5 16.8125 -39.5 16.8125 -39 14 C-33.49741494 9.26808512 -26.16464699 6.78506993 -19.5 4.1875 C-18.50613281 3.78080078 -17.51226563 3.37410156 -16.48828125 2.95507812 C-10.7095628 0.68404941 -6.20947343 -0.49527943 0 0 Z " fill="#C0080B" transform="translate(814,728)"/>
<path d="M0 0 C6.03151528 4.9592459 9.50049459 11.37751416 11 19 C12.10316612 32.66377691 8.35061893 42.59577068 -0.1875 53.0625 C-6.9653089 60.52982626 -16.3417727 67.07633594 -26.55859375 68.30859375 C-28.78705578 68.36920792 -30.80797773 68.40627999 -33 68 C-35.70820273 65.29179727 -35.26982532 63.8433662 -35.30639648 60.05322266 C-35.32238388 58.80497711 -35.33837128 57.55673157 -35.35484314 56.2706604 C-35.36121969 54.90179857 -35.36661248 53.53293185 -35.37109375 52.1640625 C-35.38005798 50.76402691 -35.38917978 49.36399232 -35.39845276 47.96395874 C-35.41495562 45.02673005 -35.42264508 42.0896155 -35.42553711 39.15234375 C-35.4309198 35.3902503 -35.46858711 31.62923126 -35.51428127 27.86744118 C-35.5440413 24.97462053 -35.55126042 22.08205879 -35.55226326 19.18909836 C-35.55646847 17.80239317 -35.56891517 16.41568742 -35.58978081 15.02913284 C-35.61666226 13.08812754 -35.60876932 11.14673507 -35.59936523 9.20556641 C-35.60443588 8.10129303 -35.60950653 6.99701965 -35.61473083 5.85928345 C-34.79746867 2.05797069 -33.19780347 1.07147559 -30 -1 C-20.48226402 -5.89587955 -9.04852535 -5.69721967 0 0 Z " fill="#F9F7F5" transform="translate(189,694)"/>
<path d="M0 0 C13.92591891 6.70387259 27.09995312 16.54221881 32.875 31.3125 C35.95185938 42.00736663 33.83303735 51.21552126 29 61 C26.99607449 64.61264935 24.87422549 68.15252968 22.74267578 71.69091797 C15.07656142 84.44284478 8.5499263 97.75212181 12 113 C13.16011282 116.4192799 14.49835977 119.71734462 16 123 C6.8468221 120.65303131 -0.67485705 114.69800458 -6 107 C-11.03833559 98.44377328 -11.35500514 89.18310238 -9.2578125 79.61328125 C-6.40187606 70.30543 -2.08979133 61.65403105 2.03564453 52.85961914 C7.72467169 40.55678121 12.79635363 27.94983205 8.375 14.5 C6.28181298 9.16162016 3.40320702 4.59432947 0 0 Z " fill="#C10A0C" transform="translate(477,136)"/>
<path d="M0 0 C5.46986291 2.48630132 7.44437245 5.79409203 10 11 C11.14888581 14.44665742 11.2039347 17.24351905 11.25 20.875 C11.27578125 22.08929687 11.3015625 23.30359375 11.328125 24.5546875 C10.97374382 28.27568991 10.30297987 30.08709852 8 33 C0.69458694 37.69397581 -9.1705399 37.0780916 -17.5 37.125 C-18.21929687 37.12975342 -18.93859375 37.13450684 -19.6796875 37.1394043 C-24.87739865 37.12260135 -24.87739865 37.12260135 -26 36 C-27.03337462 26.17447078 -25.30856763 15.93827081 -20.0625 7.4375 C-14.05473907 0.3374189 -9.01777979 -0.89284948 0 0 Z " fill="#F9F7F5" transform="translate(478,735)"/>
<path d="M0 0 C5.35301627 2.14120651 8.76890647 6.53781294 11.3125 11.625 C12.65578935 18.21932954 13.38662939 25.95099027 10 32 C1.40370967 38.71113895 -13.51404138 37.61014374 -24 37 C-25.65215291 35.34784709 -25.21095636 33.46179221 -25.25 31.1875 C-25.13891782 21.68380202 -23.13712961 12.46894073 -17 5 C-11.4026726 -0.07664578 -7.39911099 -0.63220252 0 0 Z " fill="#FAF7F6" transform="translate(289,735)"/>
<path d="M0 0 C0.66 0 1.32 0 2 0 C6.91075209 8.11151015 9.85425843 15.42769186 8 25 C6.74395827 27.46742421 5.4954028 29.69276175 4 32 C3.63471191 32.57322998 3.26942383 33.14645996 2.89306641 33.73706055 C1.77288032 35.47785038 0.63731948 37.20786685 -0.5 38.9375 C-7.73824474 50.08120877 -11.68204514 58.58977428 -9 72 C-15.72384653 68.63807674 -20.39444829 64.7949404 -23.375 57.75 C-26.66819739 37.99081565 -14.88341568 23.44746316 -4.62231445 7.54858398 C-3.50169478 5.78814023 -2.43521772 3.99247294 -1.41479492 2.17211914 C-0.9479126 1.45531982 -0.48103027 0.73852051 0 0 Z " fill="#BF090B" transform="translate(539,191)"/>
<path d="M0 0 C0.97807617 0.01015137 1.95615234 0.02030273 2.96386719 0.03076172 C4.0722998 0.05033936 4.0722998 0.05033936 5.203125 0.0703125 C5.25265206 4.41193075 5.28890454 8.75339825 5.31298828 13.09521484 C5.32303091 14.57148097 5.33666765 16.04772729 5.35400391 17.52392578 C5.37832921 19.64881284 5.3896254 21.77343635 5.3984375 23.8984375 C5.40891113 25.1762207 5.41938477 26.45400391 5.43017578 27.77050781 C5.21606702 30.88222187 4.94551558 32.53172031 3.203125 35.0703125 C-2.00867309 38.81211625 -7.62487724 38.87652411 -13.796875 38.0703125 C-17.66207909 36.77026194 -20.20086712 34.86498968 -22.671875 31.5703125 C-25.49669171 25.29294204 -25.87438518 18.36622598 -23.734375 11.8203125 C-17.78769543 3.37986407 -10.25654928 -0.13860202 0 0 Z " fill="#F9F7F5" transform="translate(638.796875,778.9296875)"/>
<path d="M0 0 C4.86479088 2.29971932 7.73361668 5.118559 10 10 C10.89422966 15.93367347 10.89337307 21.28796731 7.8125 26.5625 C4.40670549 31.13518233 1.16564767 32.96460582 -4.4375 33.875 C-10.20437049 34.33405437 -13.38560489 32.35755953 -17.75 28.6875 C-21.46200676 24.25371415 -22.21508755 20.67095984 -21.875 15 C-21.09588535 9.03574305 -18.83320415 5.69906726 -14.4375 1.625 C-9.56643525 -0.67768515 -5.29813119 -0.77379561 0 0 Z " fill="#C1090C" transform="translate(806,682)"/>
<path d="M0 0 C2.23199463 0.93339539 2.23199463 0.93339539 3.54449463 2.99589539 C3.88480713 3.95495789 3.88480713 3.95495789 4.23199463 4.93339539 C-1.55500246 12.57151266 -7.94697446 19.50119829 -14.51409912 26.46464539 C-17.40243512 29.52988483 -20.1922278 32.66355276 -22.93988037 35.85527039 C-25.96445036 39.29345678 -29.09256067 42.63611446 -32.20574951 45.99394226 C-36.15762881 50.26005539 -40.05705146 54.57027759 -43.92816162 58.90995789 C-48.431363 63.86252331 -48.431363 63.86252331 -51.14300537 64.43339539 C-54.94960265 63.70832924 -56.43909553 61.94727871 -58.76800537 58.93339539 C-58.65350029 54.70719075 -55.49828208 52.22027464 -52.68499756 49.41459656 C-52.15643661 48.87595978 -51.62787567 48.337323 -51.08329773 47.78236389 C-49.33508155 46.00566766 -47.57577731 44.24048746 -45.81488037 42.47636414 C-44.59494954 41.24679467 -43.37524641 40.01699925 -42.15576172 38.7869873 C-39.59873969 36.21200548 -37.03559407 33.64329874 -34.46868896 31.07817078 C-31.17678066 27.78656785 -27.90601533 24.4747889 -24.64017868 21.15734386 C-22.12826328 18.61211874 -19.60287719 16.0805997 -17.07346344 13.55277443 C-15.86135405 12.33711924 -14.65411953 11.11658345 -13.45186615 9.89118004 C-11.77130217 8.18130339 -10.07288918 6.49139661 -8.36859131 4.80522156 C-7.87384811 4.29361984 -7.37910492 3.78201813 -6.86936951 3.25491333 C-4.50457219 0.95367202 -3.37254576 -0.08115125 0 0 Z " fill="#F9F5F4" transform="translate(621.7680053710938,537.0666046142578)"/>
<path d="M0 0 C4.875 0.875 4.875 0.875 6 2 C6.6420256 6.21991585 6.1919222 7.72884088 3.69140625 11.26171875 C2.66266495 12.4164796 1.61878626 13.55788032 0.5625 14.6875 C-0.54800151 15.92477109 -1.65736627 17.16306334 -2.765625 18.40234375 C-3.31669922 19.01062012 -3.86777344 19.61889648 -4.43554688 20.24560547 C-6.60558484 22.67910934 -8.64743342 25.20715105 -10.6875 27.75 C-14.24095569 32.12939404 -17.962648 36.31395765 -21.76171875 40.48046875 C-24.02847158 43.03204917 -26.17540087 45.65171532 -28.3125 48.3125 C-29.86775725 50.21427948 -31.43090859 52.10961844 -33 54 C-33.48436523 54.58378418 -33.96873047 55.16756836 -34.46777344 55.76904297 C-36.01921469 57.61606641 -37.59889052 59.4349035 -39.1875 61.25 C-39.67452393 61.83563721 -40.16154785 62.42127441 -40.66333008 63.0246582 C-42.10546875 64.640625 -42.10546875 64.640625 -45 67 C-50.12121212 66.87878788 -50.12121212 66.87878788 -52 65 C-52.54005131 61.01639573 -52.24859979 59.370255 -49.98046875 55.9921875 C-49.06484696 54.93955783 -48.13279168 53.90106828 -47.1875 52.875 C-46.69411133 52.31659424 -46.20072266 51.75818848 -45.69238281 51.18286133 C-44.1442148 49.44006789 -42.57525116 47.71832218 -41 46 C-40.02207927 44.92322807 -39.04421306 43.84640663 -38.06640625 42.76953125 C-36.2167776 40.74076258 -34.35777429 38.72112747 -32.4921875 36.70703125 C-29.85688576 33.84454833 -27.29107774 30.93133844 -24.7421875 27.9921875 C-22.68499601 25.63979365 -20.59403085 23.31965034 -18.5 21 C-14.62363949 16.70315292 -10.79956413 12.36471669 -7 8 C-5.68786505 6.49968066 -4.37537249 4.99967399 -3.0625 3.5 C-2.47597656 2.8296875 -1.88945313 2.159375 -1.28515625 1.46875 C-0.86105469 0.9840625 -0.43695312 0.499375 0 0 Z " fill="#F9F5F3" transform="translate(644,557)"/>
<path d="M0 0 C0.99 0.495 0.99 0.495 2 1 C1.51661244 6.05359723 0.54431679 9.41794411 -2.1875 13.6875 C-2.53208252 14.22656982 -2.87666504 14.76563965 -3.23168945 15.32104492 C-4.46729619 17.22841223 -5.72981989 19.11547852 -7 21 C-7.50789062 21.75571289 -8.01578125 22.51142578 -8.5390625 23.29003906 C-19.3948784 39.3358096 -31.15326283 54.28877723 -44.46435547 68.35839844 C-46.08209434 70.08775872 -47.66996981 71.84121497 -49.25390625 73.6015625 C-54.9119505 79.86143742 -60.56709077 85.58060474 -67.25 90.77734375 C-69.80843742 92.84517172 -72.16076698 95.01129383 -74.53125 97.28540039 C-79.70919141 102.23796265 -84.98024871 106.92204706 -92 109 C-92.99 108.67 -93.98 108.34 -95 108 C-93.66704985 106.81206989 -92.33361301 105.6246859 -91 104.4375 C-90.2575 103.77621094 -89.515 103.11492187 -88.75 102.43359375 C-86.56061835 100.49611538 -84.36104422 98.57216457 -82.15625 96.65234375 C-50.36543128 68.8390982 -22.19034957 35.98593727 0 0 Z " fill="#FBF3F2" transform="translate(670,394)"/>
<path d="M0 0 C0.66 0.33 1.32 0.66 2 1 C2.4492501 3.51801908 2.77073097 5.95228837 3.01953125 8.4921875 C3.10177444 9.25570526 3.18401764 10.01922302 3.26875305 10.80587769 C3.5237168 13.20292099 3.76435504 15.60098543 4 18 C4.07071716 18.71853149 4.14143433 19.43706299 4.21429443 20.17736816 C4.41866731 22.26658072 4.6215333 24.35593564 4.82421875 26.4453125 C6.66093838 45.32612286 9.72128245 63.36258879 14.23535156 81.78857422 C18 97.59961686 18 97.59961686 18 103 C17.34 103 16.68 103 16 103 C12.02653422 98.07726193 9.6193334 92.2115203 7.5 86.3125 C7.20448242 85.49652344 6.90896484 84.68054688 6.60449219 83.83984375 C3.29490557 74.40232264 1.01336074 64.78512225 -1 55 C-1.16516113 54.23816406 -1.33032227 53.47632813 -1.50048828 52.69140625 C-3.7619234 42.04605706 -4.29622673 31.56225097 -4.375 20.6875 C-4.38893799 19.42873047 -4.40287598 18.16996094 -4.41723633 16.87304688 C-4.41103271 15.68130859 -4.4048291 14.48957031 -4.3984375 13.26171875 C-4.39505371 12.19912842 -4.39166992 11.13653809 -4.38818359 10.04174805 C-3.91192705 6.30987365 -2.72644801 2.72644801 0 0 Z " fill="#FAF4F3" transform="translate(308,410)"/>
<path d="M0 0 C0.99 0.66 1.98 1.32 3 2 C3.57268632 6.25424124 3.26527019 8.49788143 1.25 12.3125 C-2.03640982 16.23793395 -2.03640982 16.23793395 -5 17 C-11.44444444 16.55555556 -11.44444444 16.55555556 -14 14 C-14.53837157 10.56788121 -14.58350159 8.10693684 -12.9375 4.984375 C-9.07103566 -0.18491972 -6.3141831 -0.93160078 0 0 Z " fill="#FAF6F5" transform="translate(684,295)"/>
<path d="M0 0 C0.99 0.33 1.98 0.66 3 1 C2.34 2.98 1.68 4.96 1 7 C19.48 7 37.96 7 57 7 C57 7.66 57 8.32 57 9 C49.73311247 9.0694429 42.46629622 9.12278189 35.19914436 9.15543652 C31.82486394 9.17110744 28.45081013 9.19237093 25.07666016 9.22631836 C21.19948252 9.2625736 17.32262828 9.27969728 13.4453125 9.29296875 C12.23070343 9.30845261 11.01609436 9.32393646 9.76467896 9.33988953 C8.64366791 9.34011612 7.52265686 9.34034271 6.36767578 9.34057617 C5.37728302 9.34723801 4.38689026 9.35389984 3.3664856 9.36076355 C2.58554535 9.24171158 1.8046051 9.12265961 1 9 C-1.14809171 5.77786243 -1.29386153 4.72224599 -1 1 C-0.67 0.67 -0.34 0.34 0 0 Z " fill="#C21B1A" transform="translate(109,824)"/>
<path d="M0 0 C0 10.23 0 20.46 0 31 C-2.63991268 28.36008732 -2.30240797 27.02053704 -2.4140625 23.3359375 C-2.45273437 22.21445312 -2.49140625 21.09296875 -2.53125 19.9375 C-2.5621875 18.761875 -2.593125 17.58625 -2.625 16.375 C-2.66367187 15.19164062 -2.70234375 14.00828125 -2.7421875 12.7890625 C-2.83668845 9.85953309 -2.92224558 6.93001403 -3 4 C-6.43280371 5.98888831 -8.83976667 7.70164194 -11.3125 10.8125 C-14.76065457 14.92142428 -18.59071989 17.97649364 -23 21 C-20.70604255 15.7671386 -16.60786659 12.23948265 -12.625 8.25 C-11.85671875 7.45722656 -11.0884375 6.66445313 -10.296875 5.84765625 C-9.55179688 5.09871094 -8.80671875 4.34976563 -8.0390625 3.578125 C-7.02126709 2.54800293 -7.02126709 2.54800293 -5.98291016 1.49707031 C-4 0 -4 0 0 0 Z " fill="#BA0202" transform="translate(557,696)"/>
<path d="M0 0 C-0.33 0.66 -0.66 1.32 -1 2 C-3.22143555 2.59423828 -3.22143555 2.59423828 -6.13671875 3.0703125 C-7.71549805 3.33134766 -7.71549805 3.33134766 -9.32617188 3.59765625 C-10.43541016 3.77167969 -11.54464844 3.94570313 -12.6875 4.125 C-13.77740234 4.30675781 -14.86730469 4.48851562 -15.99023438 4.67578125 C-21.06370574 5.49717102 -25.84863421 6.09823025 -31 6 C-30.67 5.34 -30.34 4.68 -30 4 C-28.25341797 3.52929688 -28.25341797 3.52929688 -25.9921875 3.21875 C-24.75855469 3.03892578 -24.75855469 3.03892578 -23.5 2.85546875 C-22.63375 2.73816406 -21.7675 2.62085938 -20.875 2.5 C-13.88123049 1.55048344 -13.88123049 1.55048344 -7.03515625 -0.1171875 C-4.07287053 -0.97880471 -2.81321814 -1.12528725 0 0 Z " fill="#B30606" transform="translate(521,315)"/>
<path d="M0 0 C0.99 0 1.98 0 3 0 C1.3997938 3.79937227 -1.02842062 6.42802289 -3.8125 9.4375 C-5.09060547 10.82775391 -5.09060547 10.82775391 -6.39453125 12.24609375 C-8.8868022 14.88035316 -11.42226521 17.45003255 -14 20 C-14 19.01 -14 18.02 -14 17 C-13.34 17 -12.68 17 -12 17 C-12 16.01 -12 15.02 -12 14 C-9.625 11.3125 -9.625 11.3125 -7 9 C-6.34 9 -5.68 9 -5 9 C-4.731875 8.443125 -4.46375 7.88625 -4.1875 7.3125 C-2.88383449 4.77378296 -1.62991973 2.34708441 0 0 Z " fill="#A80808" transform="translate(634,564)"/>
<path d="M0 0 C1.32 0.66 2.64 1.32 4 2 C4 2.66 4 3.32 4 4 C1.95928485 4.33910994 -0.08262621 4.67102704 -2.125 5 C-3.83042969 5.2784375 -3.83042969 5.2784375 -5.5703125 5.5625 C-8.76137602 5.96956049 -11.78817791 6.07809902 -15 6 C-11.40811878 3.60541252 -8.47267629 3.25248127 -4.27734375 2.5625 C-1.81880229 2.16341425 -1.81880229 2.16341425 0 0 Z " fill="#B30B0B" transform="translate(546,308)"/>
<path d="M0 0 C0.33 0 0.66 0 1 0 C1 2.64 1 5.28 1 8 C-7.25 7.67 -15.5 7.34 -24 7 C-24 6.67 -24 6.34 -24 6 C-16.41 5.67 -8.82 5.34 -1 5 C-0.67 3.35 -0.34 1.7 0 0 Z " fill="#B50202" transform="translate(582,731)"/>
<path d="M0 0 C6.04433574 1.35997554 9.63494136 4.85651794 14 9 C13.34 9.66 12.68 10.32 12 11 C11.67 10.01 11.34 9.02 11 8 C9.35 7.67 7.7 7.34 6 7 C6 6.01 6 5.02 6 4 C4.02 3.34 2.04 2.68 0 2 C0 1.34 0 0.68 0 0 Z " fill="#BC0C0D" transform="translate(794,374)"/>
<path d="M0 0 C0.66 0.66 1.32 1.32 2 2 C1.01 2.495 1.01 2.495 0 3 C-1.0064275 4.66279327 -2.00585407 6.32983484 -3 8 C-4.5625 9.8125 -4.5625 9.8125 -6 11 C-6.66 11 -7.32 11 -8 11 C-6.63629701 8.00779732 -5.05091917 5.70973471 -2.875 3.25 C-2.33617187 2.63640625 -1.79734375 2.0228125 -1.2421875 1.390625 C-0.62730469 0.70226562 -0.62730469 0.70226562 0 0 Z M-10 12 C-10 12.99 -10 13.98 -10 15 C-10.66 14.67 -11.32 14.34 -12 14 C-11.34 13.34 -10.68 12.68 -10 12 Z " fill="#BE0D0D" transform="translate(721,433)"/>
<path d="M0 0 C0.66 0.99 1.32 1.98 2 3 C-0.64 5.31 -3.28 7.62 -6 10 C-6.66 9.67 -7.32 9.34 -8 9 C-5.36 6.03 -2.72 3.06 0 0 Z " fill="#AE0F10" transform="translate(628,590)"/>
<path d="M0 0 C-1.49097658 3.7952131 -3.75700849 5.61042731 -7 8 C-7.66 7.34 -8.32 6.68 -9 6 C-8.07213211 4.99105628 -7.13231567 3.99309093 -6.1875 3 C-5.66542969 2.443125 -5.14335938 1.88625 -4.60546875 1.3125 C-3 0 -3 0 0 0 Z " fill="#C01819" transform="translate(628,462)"/>
<path d="M0 0 C0.33 1.32 0.66 2.64 1 4 C0.34 4 -0.32 4 -1 4 C-1.33 5.32 -1.66 6.64 -2 8 C-1.01 8.33 -0.02 8.66 1 9 C-1.64 9.66 -4.28 10.32 -7 11 C-4.69 7.37 -2.38 3.74 0 0 Z " fill="#BE1211" transform="translate(423,590)"/>
<path d="M0 0 C0.33 0.66 0.66 1.32 1 2 C0.00390625 3.9453125 0.00390625 3.9453125 -1.4375 6.125 C-1.91058594 6.84945313 -2.38367188 7.57390625 -2.87109375 8.3203125 C-3.24363281 8.87460937 -3.61617187 9.42890625 -4 10 C-4.99 9.34 -5.98 8.68 -7 8 C-4.69 5.36 -2.38 2.72 0 0 Z " fill="#BE0C0E" transform="translate(679,480)"/>
<path d="M0 0 C0.66 0 1.32 0 2 0 C0.49087042 4.98012761 -2.55661849 8.24259942 -6 12 C-6.66 11.67 -7.32 11.34 -8 11 C-6.71632558 9.16106176 -5.42283239 7.32897375 -4.125 5.5 C-3.04605469 3.96859375 -3.04605469 3.96859375 -1.9453125 2.40625 C-1.30335938 1.6121875 -0.66140625 0.818125 0 0 Z " fill="#B30909" transform="translate(546,401)"/>
<path d="M0 0 C0.5534764 2.07553648 1 3.84365964 1 6 C3.97 6.33 6.94 6.66 10 7 C10 7.33 10 7.66 10 8 C6.96663814 8.22893297 4.02534949 8.36475845 1 8 C-1.0625 6 -1.0625 6 -2 4 C-1.34 2.68 -0.68 1.36 0 0 Z " fill="#C21819" transform="translate(516,731)"/>
<path d="M0 0 C4.2742558 1.5830577 6.26531794 4.50568404 9 8 C6 8 6 8 4.39453125 6.7578125 C3.87246094 6.21898437 3.35039062 5.68015625 2.8125 5.125 C2.28269531 4.59132813 1.75289062 4.05765625 1.20703125 3.5078125 C0 2 0 2 0 0 Z " fill="#C61B1A" transform="translate(235,825)"/>
<path d="M0 0 C2 1.375 2 1.375 4 3 C4 3.66 4 4.32 4 5 C6.475 5.99 6.475 5.99 9 7 C9 7.99 9 8.98 9 10 C7.67823515 9.09674384 6.36784934 8.17682097 5.0625 7.25 C4.33160156 6.73953125 3.60070312 6.2290625 2.84765625 5.703125 C0.79194601 3.80822085 0.37330824 2.72574271 0 0 Z " fill="#BA1413" transform="translate(524,607)"/>
<path d="M0 0 C0.99 0.33 1.98 0.66 3 1 C0.35039045 4.63094642 -2.01824456 6.89851796 -6 9 C-4.47291037 5.56404834 -2.40072955 2.88087546 0 0 Z " fill="#AD0C0D" transform="translate(595,576)"/>
<path d="M0 0 C-0.886875 0.5775 -1.77375 1.155 -2.6875 1.75 C-5.59042244 3.68068476 -8.30768649 5.78280064 -11 8 C-10.34 6.35 -9.68 4.7 -9 3 C-8.34 3 -7.68 3 -7 3 C-6.67 2.01 -6.34 1.02 -6 0 C-3.50907189 -1.24546405 -2.58919267 -0.7767578 0 0 Z " fill="#A80303" transform="translate(623,536)"/>
<path d="M0 0 C0.66 0.33 1.32 0.66 2 1 C-1.30015998 5.13937592 -4.17324411 8.58662205 -9 11 C-7.59155282 7.78475695 -5.89655214 5.67816132 -3.375 3.25 C-2.74335937 2.63640625 -2.11171875 2.0228125 -1.4609375 1.390625 C-0.73777344 0.70226562 -0.73777344 0.70226562 0 0 Z " fill="#B30000" transform="translate(619,469)"/>
<path d="M0 0 C0.33 1.32 0.66 2.64 1 4 C-0.32 4.99 -1.64 5.98 -3 7 C-3 3 -3 3 -1.5 1.25 C-1.005 0.8375 -0.51 0.425 0 0 Z " fill="#C00F10" transform="translate(698,460)"/>
<path d="M0 0 C3.11089621 1.55544811 6.03851491 3.19020355 9 5 C8.01 5.495 8.01 5.495 7 6 C6.67 6.99 6.34 7.98 6 9 C4.02 6.03 2.04 3.06 0 0 Z " fill="#C02120" transform="translate(477,136)"/>
<path d="M0 0 C2.17854707 3.2678206 3.49760034 6.38058265 5 10 C3.02 9.34 1.04 8.68 -1 8 C-0.67 7.01 -0.34 6.02 0 5 C-0.33 4.01 -0.66 3.02 -1 2 C-0.67 1.34 -0.34 0.68 0 0 Z " fill="#C21E1E" transform="translate(488,249)"/>
<path d="M0 0 C4.61513112 1.31860889 8.09897612 3.21355437 12 6 C11.01 6.33 10.02 6.66 9 7 C6.73828125 5.8203125 6.73828125 5.8203125 4.3125 4.125 C3.50425781 3.57070313 2.69601562 3.01640625 1.86328125 2.4453125 C1.24839844 1.96835937 0.63351563 1.49140625 0 1 C0 0.67 0 0.34 0 0 Z " fill="#BD0505" transform="translate(255,822)"/>
<path d="M0 0 C0 0.99 0 1.98 0 3 C-2.8125 5.25 -2.8125 5.25 -6 7 C-6.99 6.67 -7.98 6.34 -9 6 C-6.03 4.02 -3.06 2.04 0 0 Z " fill="#BA0405" transform="translate(576,823)"/>
<path d="M0 0 C1.1725131 0.95117134 2.33787015 1.91117009 3.5 2.875 C4.47453125 3.67550781 4.47453125 3.67550781 5.46875 4.4921875 C5.9740625 4.98976563 6.479375 5.48734375 7 6 C7 6.66 7 7.32 7 8 C4.13792848 6.71700242 1.9754912 5.469364 0 3 C0 2.01 0 1.02 0 0 Z " fill="#C01817" transform="translate(647,822)"/>
<path d="M0 0 C0 3 0 3 0 3 Z M-3 4 C-2.67 4.99 -2.34 5.98 -2 7 C-2.99 7.99 -3.98 8.98 -5 10 C-5.99 9.67 -6.98 9.34 -8 9 C-6.35 7.35 -4.7 5.7 -3 4 Z " fill="#AF0E0E" transform="translate(608,613)"/>
<path d="M0 0 C0.66 0.33 1.32 0.66 2 1 C1.09515208 2.15518918 0.1755794 3.29885406 -0.75 4.4375 C-1.26046875 5.07558594 -1.7709375 5.71367188 -2.296875 6.37109375 C-4.19667629 8.18810554 -5.43586908 8.60423197 -8 9 C-7.04270084 7.87411986 -6.08412105 6.7493285 -5.125 5.625 C-4.59132813 4.99851562 -4.05765625 4.37203125 -3.5078125 3.7265625 C-2.38567993 2.44163349 -1.20628025 1.20628025 0 0 Z " fill="#A80202" transform="translate(583,590)"/>
<path d="M0 0 C0.66 0.33 1.32 0.66 2 1 C-0.31 3.64 -2.62 6.28 -5 9 C-5.33 8.01 -5.66 7.02 -6 6 C-4.02 4.02 -2.04 2.04 0 0 Z " fill="#BB1112" transform="translate(616,461)"/>
<path d="M0 0 C0 3.58912412 -0.66436554 4.10857029 -3 6.6875 C-3.556875 7.31011719 -4.11375 7.93273437 -4.6875 8.57421875 C-5.120625 9.04472656 -5.55375 9.51523437 -6 10 C-6 6.36672806 -5.04413589 4.95264073 -3 2 C-2.01 1.34 -1.02 0.68 0 0 Z " fill="#A90304" transform="translate(613,609)"/>
<path d="M0 0 C3.11198065 1.49836105 6.0534615 3.19933758 9 5 C8.67 5.66 8.34 6.32 8 7 C6.66144944 6.21718695 5.32926356 5.42348123 4 4.625 C3.2575 4.18414063 2.515 3.74328125 1.75 3.2890625 C1.1725 2.86367188 0.595 2.43828125 0 2 C0 1.34 0 0.68 0 0 Z " fill="#C31312" transform="translate(313,547)"/>
<path d="M0 0 C0.66 0.66 1.32 1.32 2 2 C0.02 3.32 -1.96 4.64 -4 6 C-2.84826645 3.53199953 -1.95216435 1.95216435 0 0 Z " fill="#AD1413" transform="translate(617,603)"/>
<path d="M0 0 C0.33 0.66 0.66 1.32 1 2 C-0.65 4.31 -2.3 6.62 -4 9 C-4.33 8.01 -4.66 7.02 -5 6 C-3.59554165 3.7363436 -1.8032087 1.9791315 0 0 Z " fill="#B10F0F" transform="translate(663,599)"/>
<path d="M0 0 C0 3 0 3 -2.5 5.6875 C-3.325 6.450625 -4.15 7.21375 -5 8 C-5 7.01 -5 6.02 -5 5 C-4.34 5 -3.68 5 -3 5 C-3 4.01 -3 3.02 -3 2 C-2.01 1.34 -1.02 0.68 0 0 Z " fill="#AD0F0F" transform="translate(625,576)"/>
<path d="M0 0 C0 3.51716303 -0.82445585 4.37121748 -3 7 C-3.99 6.67 -4.98 6.34 -6 6 C-4 4 -2 2 0 0 Z " fill="#B91415" transform="translate(583,538)"/>
<path d="M0 0 C0 0.99 0 1.98 0 3 C-0.99 3.495 -0.99 3.495 -2 4 C-1.34 2.68 -0.68 1.36 0 0 Z M-3 4 C-2.67 4.66 -2.34 5.32 -2 6 C-2.99 6.99 -3.98 7.98 -5 9 C-5 6 -5 6 -3 4 Z " fill="#BD1717" transform="translate(645,439)"/>
<path d="M0 0 C0.33 0.66 0.66 1.32 1 2 C-0.32 3.65 -1.64 5.3 -3 7 C-3.99 6.67 -4.98 6.34 -6 6 C-4.02 4.02 -2.04 2.04 0 0 Z " fill="#C41D1D" transform="translate(736,417)"/>
</svg>
