<?xml version="1.0" standalone="no"?>
<!DOCTYPE svg PUBLIC "-//W3C//DTD SVG 20010904//EN"
 "http://www.w3.org/TR/2001/REC-SVG-20010904/DTD/svg10.dtd">
<svg version="1.0" xmlns="http://www.w3.org/2000/svg"
 width="1902.000000pt" height="1771.000000pt" viewBox="0 0 1902.000000 1771.000000"
 preserveAspectRatio="xMidYMid meet">
<metadata>
Created by potrace 1.16, written by Peter Selinger 2001-2019
</metadata>
<g transform="translate(0.000000,1771.000000) scale(0.100000,-0.100000)"
fill="#000000" stroke="none">
<path d="M4708 17699 c-106 -14 -246 -64 -342 -121 -385 -229 -565 -698 -426
-1108 34 -102 4766 -9606 4827 -9696 23 -34 80 -97 126 -140 183 -171 401
-255 662 -256 213 -1 392 52 560 165 77 52 190 165 242 242 65 96 4797 9608
4826 9702 136 430 -76 917 -489 1122 -206 102 -412 124 -639 66 -60 -15 -684
-272 -1860 -765 -973 -408 -1808 -757 -1855 -775 -106 -40 -326 -99 -447 -120
-311 -52 -599 -34 -928 58 -163 46 -86 15 -2040 834 -957 402 -1760 737 -1785
747 -120 43 -305 63 -432 45z"/>
<path d="M4729 5509 c-100 -15 -193 -90 -229 -185 -19 -53 -20 -75 -20 -650
l0 -594 -72 49 c-194 131 -423 219 -659 251 -178 25 -420 11 -599 -35 -285
-72 -574 -251 -770 -477 -196 -227 -316 -484 -366 -788 -16 -99 -18 -356 -4
-450 54 -348 198 -632 444 -875 299 -294 667 -445 1086 -445 385 0 728 129
1019 383 224 194 406 487 476 767 45 176 45 169 45 1522 0 1272 0 1288 -20
1342 -49 129 -189 207 -331 185z m-1079 -1734 c294 -24 582 -228 724 -512 20
-40 48 -112 63 -160 25 -81 27 -102 27 -258 1 -160 -1 -175 -28 -260 -15 -49
-39 -112 -53 -140 -103 -204 -284 -373 -493 -458 -132 -54 -178 -62 -350 -62
-172 0 -218 8 -350 62 -209 85 -390 254 -493 458 -14 28 -38 91 -53 140 -27
85 -29 100 -28 260 0 156 2 177 27 258 53 171 135 305 258 422 123 116 240
183 394 226 75 20 217 38 265 33 14 -2 54 -6 90 -9z"/>
<path d="M249 4410 c-92 -15 -178 -81 -221 -169 l-23 -46 -3 -1307 -2 -1307
21 -56 c29 -78 92 -152 159 -187 49 -25 64 -28 130 -26 107 4 175 42 236 129
61 88 58 56 64 859 l6 735 26 85 c55 176 124 294 239 409 166 166 353 250 604
272 136 11 192 27 244 66 51 39 69 61 99 123 21 44 26 69 26 127 -1 124 -63
216 -182 271 -48 22 -67 24 -165 24 -240 -3 -452 -54 -675 -165 -49 -24 -116
-63 -150 -86 -33 -22 -63 -41 -66 -41 -2 0 -9 23 -15 50 -21 95 -75 170 -151
210 -32 16 -56 22 -135 34 -11 2 -41 0 -66 -4z"/>
<path d="M5748 4389 c-170 -26 -283 -195 -249 -370 8 -38 199 -464 567 -1261
305 -661 569 -1231 585 -1264 57 -115 146 -176 266 -182 101 -6 163 17 228 82
47 48 82 120 639 1316 l589 1265 4 85 c6 106 -18 178 -78 240 -88 90 -232 119
-347 70 -105 -45 -96 -29 -571 -1061 -238 -519 -436 -947 -440 -951 -3 -4
-204 421 -445 944 -478 1033 -473 1023 -573 1065 -59 25 -113 32 -175 22z"/>
<path d="M10020 4393 c-695 -29 -1281 -516 -1438 -1198 -80 -347 -37 -728 119
-1037 200 -399 578 -699 1014 -807 209 -51 506 -55 705 -8 200 48 388 129 538
233 l62 43 0 -78 c0 -323 -151 -618 -397 -774 -157 -100 -285 -137 -499 -144
-229 -8 -372 16 -529 91 -103 49 -216 134 -299 223 -75 81 -142 114 -234 114
-172 1 -295 -109 -309 -277 -7 -87 6 -135 59 -216 62 -93 150 -175 289 -268
293 -197 556 -278 929 -287 168 -4 213 -2 320 16 136 23 325 83 432 137 386
194 686 563 794 976 46 178 47 186 51 978 5 918 0 992 -84 1240 -168 497 -578
873 -1088 999 -132 32 -300 49 -435 44z m189 -618 c142 -14 328 -94 458 -197
103 -82 184 -184 248 -313 116 -234 135 -481 53 -719 -98 -288 -338 -511 -643
-598 -70 -20 -102 -23 -245 -22 -150 0 -173 3 -255 28 -322 98 -559 342 -647
667 -32 121 -32 328 0 449 111 409 440 684 852 713 46 3 66 2 179 -8z"/>
<path d="M13315 4393 c-619 -26 -1169 -434 -1380 -1023 -48 -133 -72 -248 -85
-412 -30 -362 79 -738 298 -1033 64 -85 204 -227 292 -295 210 -161 451 -264
716 -305 145 -23 406 -17 544 13 193 42 400 128 544 226 36 25 69 46 73 46 13
0 -6 -248 -26 -322 -79 -302 -280 -522 -564 -616 -136 -45 -218 -55 -402 -49
-182 6 -308 32 -430 90 -78 38 -231 149 -279 205 -52 61 -77 81 -134 108 -138
65 -325 4 -394 -130 -29 -57 -42 -154 -28 -220 21 -101 134 -238 285 -346 261
-185 481 -274 782 -316 163 -22 446 -15 588 16 300 64 553 201 767 415 211
209 349 466 419 780 23 99 23 111 26 924 4 785 3 829 -16 940 -52 306 -173
562 -369 786 -305 347 -756 538 -1227 518z m260 -629 c157 -30 329 -119 448
-232 138 -131 219 -272 273 -472 26 -94 26 -339 0 -435 -87 -326 -326 -571
-653 -672 -80 -24 -103 -27 -253 -27 -142 -1 -176 2 -245 22 -260 74 -478 255
-595 495 -67 137 -93 249 -92 397 0 298 127 563 354 743 216 170 483 234 763
181z"/>
<path d="M16459 4390 c-115 -20 -208 -102 -239 -212 -6 -18 -48 -475 -95
-1014 -93 -1076 -92 -1037 -35 -1128 58 -91 169 -143 286 -133 86 6 153 45
218 125 124 153 398 296 666 348 128 25 332 23 443 -4 197 -48 322 -117 458
-252 174 -173 259 -375 259 -620 0 -529 -439 -926 -994 -897 -192 10 -347 52
-546 149 -118 57 -130 66 -220 158 -102 105 -132 125 -210 140 -139 26 -290
-59 -334 -188 -19 -54 -21 -155 -5 -203 20 -60 99 -169 183 -253 266 -265 669
-406 1164 -406 282 0 503 51 736 169 361 183 627 486 750 854 135 404 89 869
-121 1219 -299 497 -830 780 -1417 755 -264 -11 -473 -54 -686 -141 -14 -6
-11 55 21 461 20 258 37 469 38 471 1 1 361 2 801 2 805 0 866 2 932 36 96 49
158 155 158 270 0 59 -5 81 -31 132 -35 70 -71 104 -149 141 l-55 26 -965 1
c-531 1 -986 -2 -1011 -6z"/>
<path d="M15363 769 c-205 -28 -357 -254 -313 -465 25 -122 98 -214 210 -268
174 -83 393 -21 496 141 113 176 63 412 -112 528 -89 60 -175 79 -281 64z"/>
</g>
</svg>
